<svg width="400" height="400" viewBox="0 0 400 400" fill="none" xmlns="http://www.w3.org/2000/svg">
  <!-- Red person head -->
  <circle cx="140" cy="80" r="25" fill="#E63946"/>
  
  <!-- Black person head -->
  <circle cx="260" cy="80" r="25" fill="#1D3557"/>
  
  <!-- Red person body/link (left) -->
  <path d="M 115 120 Q 115 140 120 160 C 120 200 120 240 140 270 C 150 285 165 290 180 290 L 180 250 C 170 250 165 245 160 235 C 150 215 150 185 150 160 Q 145 140 145 120 Q 145 110 140 110 Q 125 110 115 120 Z" fill="#E63946"/>
  
  <!-- Black person body/link (right) -->
  <path d="M 285 120 Q 285 140 280 160 C 280 200 280 240 260 270 C 250 285 235 290 220 290 L 220 250 C 230 250 235 245 240 235 C 250 215 250 185 250 160 Q 255 140 255 120 Q 255 110 260 110 Q 275 110 285 120 Z" fill="#1D3557"/>
  
  <!-- Center connecting link (red part) -->
  <path d="M 180 250 L 180 290 L 200 290 L 200 250 Z" fill="#E63946"/>
  
  <!-- Center connecting link (black part) -->
  <path d="M 200 250 L 200 290 L 220 290 L 220 250 Z" fill="#1D3557"/>
  
  <!-- Connection joint -->
  <rect x="185" y="260" width="30" height="20" rx="5" fill="#E63946"/>
</svg>
